<svg version="1.2" xmlns="http://www.w3.org/2000/svg" viewBox="0 0 1024 1024" width="1024" height="1024"><style>.a{fill:#005037}.b{fill:#0da150}.c{fill:#f9d638}.d{fill:#fc9e6f}.e{fill:#005234}</style><path class="a" d="m359.9 475.5q-9-2.3-10.2-2.6-19.2-4.7-38.5-14.6-12.8-6.7-21.7-14-2.1-1.7-8.2-7.8-4.9-4.8-7.6-8.4-10.6-14.2-14-29.5c-3.4-14.9-2.5-32.4 3.8-47.2 1.6-3.8 2.4-7.4 2.6-11.5q0.7-15.3 1.8-22.9 4.9-33.9 27.5-58.8 7.4-8.2 17.9-17.2 1.1-0.9 9.5-6.8c9.3-6.4 20.2-11.8 30.3-15.5 0.1-0.1 0.6-0.3 0.7-0.4 0.1-0.1 0.5-0.5 0.5-0.6 0.1-0.2 0.3-0.7 0.3-0.8 0.1-0.1 0.1-0.7 0.1-0.8q-1-7.2-3.5-14.4c-5.2-15.2-17.3-25.7-33-29q-0.6-0.2-7.8-1.9c-7.7-1.8-13.2-7.4-13.8-15.5q-0.2-3.8 1-6.1 4.3-8.4 14.1-8c21.5 0.7 41.1 19.6 50.2 37.9q7.3 14.9 10.1 32.3c0 0.1 0.2 0.6 0.3 0.8 0.1 0.1 0.5 0.5 0.6 0.6 0.1 0 0.6 0.3 0.7 0.3 0.2 0 0.7 0.1 0.9 0q22.1-3.7 44.8-2.2 5.7 0.4 7.2 0.5c0.1 0 0.6 0 0.7-0.1 0.1 0 0.5-0.2 0.6-0.3 0.1 0 0.5-0.3 0.5-0.4 0.1-0.1 0.3-0.5 0.3-0.6q2.9-7.8 4.5-11.8 8.7-21 21.6-35.5 5.2-5.9 13.5-12.3 8.5-6.5 18.6-9.6c10.1-3.2 23.1-0.1 23.7 12.4 0.5 9.2-5.5 14.7-14 16.6q-0.1 0-8.5 1.6c-13 2.5-24.8 11.8-31.7 22.6q-5.1 7.8-8.8 17.2-1.4 3.3 2 4.3 50.6 13.9 79.5 57.1c0 0.1 0.1 0.2 0.1 0.2 0.1 0.1 0.2 0.2 0.2 0.2 0.1 0 0.2 0.1 0.2 0.1 0.1 0.1 0.2 0.1 0.2 0.1q1.9 0.8 2.8-1.4 6-14.8 13.8-28.7 7.3-13.1 16.6-24.9 2.8-3.5 4.3-5c3-3 4.4-5.4 7.3-8 2-1.9 4.8-5 7.3-6.9 2-1.5 3.2-3.2 5.3-5q12.2-10.1 24.9-18.8c17.2-11.8 36.5-22.1 56.5-27.8 8.8-2.5 13.8-1.6 17.7 7.1 4.3 9.5 6.2 17 9.7 30q3.5 12.7 5.1 26.2 2 16 2.9 27.3c0.2 2.1 1.1 2.6 3.3 2.3q26.7-3.6 49.4-2.7 18.4 0.8 39.5 5.7 2.1 0.5 7.6 2.9c6.3 2.8 7 10.4 5.7 16.7q-4.5 22.6-7.9 37.5c-4.7 20.2-11.2 39.5-21.1 57.7-9.5 17.5-23 33.2-37.7 45.2q-18 14.7-41 21.6-16.1 4.8-36.4 6.9-0.5 0-1.1 0.3c0 0.1-0.3 0.3-0.3 0.4-0.1 0.1-0.2 0.4-0.2 0.4 0 0.1 0 0.5 0 0.6 0 0 0.1 0.3 0.2 0.4q17.8 22.8 26.1 51.8 12.7 44.6-1.9 88.7c-1.1 3.4-0.8 5.4 1.4 8.1q9.3 11.2 27.6 33.8c4.2 5.1-0.9 9-6.1 8.1q-43.6-7.2-44-7.2-2.6-0.4-4.8-0.7c-0.1 0-0.7-0.1-0.8-0.1-0.1 0.1-0.7 0.1-0.8 0.2-0.1 0-0.6 0.2-0.7 0.3-0.2 0.1-0.6 0.4-0.7 0.5q-23.4 20.4-54.4 27.8-15.2 3.7-26.2 4.6-49.5 4.1-96.8-13.2-16.2-5.9-31.4-14c0 0 0 0-0.1-0.1 0 0 0 0-0.1 0 0 0 0-0.1 0-0.1-0.1 0-0.1 0-0.1-0.1q-0.4-0.4-0.8-0.6-3.9-2.3-8.9-5.3c-5.8-3.5-11.5-8.5-17.3-12.8q-5.5-4.2-11.4-10.1-7.4-7.4-10.8-10.9-6.3-6.4-15.6-19.7-13.2-19.1-19.2-41.5-5.4-20.1-4.9-41.4 0.1-2-0.5-3.1c0-0.1-0.1-0.2-0.1-0.3 0 0-0.2-0.1-0.2-0.2 0 0-0.2-0.1-0.2-0.1-0.1 0-0.2-0.1-0.3-0.1z"/><path class="b" d="m639.1 227.1q0 0-0.1-0.1 0-0.1-0.1-0.1 0 0-0.1 0-0.1 0-0.1 0.1-5.7 10.8-13.2 23.8-4.8 8.2-12.9 25.8-4 8.5-20.6 38.5c-3.3 6-7.6 12-12.4 19.5q-8.5 12.9-13.5 28-0.1 0.1-0.2 0.2 0 0.1-0.2 0.2-0.1 0-0.3 0-0.1 0-0.2-0.1l-13-7.4q-0.3-0.2-0.5-0.4-0.2-0.2-0.3-0.5-0.2-0.2-0.3-0.5 0-0.3 0-0.6c-0.1-10.6-1.1-22.3-3.1-33.4q-1.3-7.4-0.9-11c4.1-32.6 20.2-62.7 42.9-85.7 19.7-20.1 43.3-36.1 69.1-47.7q2.6-1.2 4.5-1.7 0.1-0.1 0.3 0 0.1 0 0.2 0.1 0.1 0.1 0.2 0.2 0.1 0.1 0.1 0.3 0.1 1.8-0.3 4.1-2.2 13.9-5.9 26.7-11.4 39.7-15.4 51-4.2 11.9-10.9 21.9-0.9 1.2-1.7 1.6-0.1 0-0.3 0-0.2 0-0.3-0.1-0.1-0.1-0.2-0.3-0.1-0.2 0-0.3 1.1-5.9 3.1-15.1 4-18.3 6.6-37z"/><path class="c" d="m288.2 410.3q8.8 1.2 14.8-4c7.7-6.7 8.6-18.7 1.1-25.9-4.8-4.6-11.7-6-18-5.2q-3.5 0.5-6.1 2.8 0.6-12.7 6.2-25.6c0.4-1.1 0.9-3.7 1-5.5 0.7-8.4 0.8-17.8 1.9-25.2 6-39.2 33.6-68.5 70.1-82.2 27.9-10.6 59.5-9.7 88.3-0.9 29.1 8.9 55.7 29.4 68.9 56.8q10.8 22.5 12.3 45.2c1.7 27.6-7.8 58.7-27.7 78.8-17.6 17.8-41.9 31.1-66.8 35.7q-18.1 3.4-40 2.6-31.5-1.2-61.1-13.1c-17.6-7.1-34.6-18.4-44.9-34.3z"/><path class="a" d="m323 376c-7.6-0.4-12.4-8.1-14.4-14.8-2.4-8.4-2.5-18.2-0.4-26.7 2.1-8.5 8.7-18 17.9-17.5 9.3 0.5 14.9 10.6 16 19.3 1.2 8.6 0.1 18.3-3.2 26.5-2.7 6.5-8.2 13.6-15.9 13.2z"/><path class="a" d="m448.1 319.9c9.4 0.6 15.1 11 16.2 19.8 1.1 8.8 0 18.6-3.5 26.9-2.7 6.6-8.4 13.8-16.2 13.3-7.8-0.4-12.6-8.2-14.6-15.1-2.4-8.6-2.4-18.5-0.3-27.2 2.2-8.6 9-18.2 18.4-17.6z"/><path class="d" d="m495.2 399.9c0.1 2.6-0.4 5.1-1.4 7.5-1 2.4-2.5 4.6-4.4 6.4-1.9 1.9-4.2 3.3-6.7 4.3-2.5 1.1-5.2 1.6-7.9 1.7-2.8 0-5.5-0.4-8-1.4-2.6-0.9-4.9-2.3-6.9-4.1-1.9-1.8-3.5-3.9-4.6-6.2-1.1-2.4-1.6-4.9-1.7-7.5 0-2.5 0.5-5.1 1.5-7.4 1-2.4 2.5-4.6 4.4-6.4 1.9-1.9 4.1-3.4 6.6-4.4 2.6-1 5.2-1.6 8-1.6 2.7-0.1 5.4 0.4 8 1.3 2.5 1 4.8 2.4 6.8 4.1 2 1.8 3.5 3.9 4.6 6.3 1.1 2.3 1.7 4.9 1.7 7.4z"/><path class="a" d="m349 392.5c-0.8-2.5-0.1-5.4 2.4-6.6 5.9-2.9 7.9 2 11 5.8 4.8 6 12.5 8.3 20.6 7.7 7-0.6 12.6-3.1 17.5-7.7 3.1-3 6.4-6.4 10.3-2.8 4.9 4.5 1 9.2-3 12.7q-14.1 12.8-32.7 10.3c-10.8-1.5-22.9-8.8-26.1-19.4z"/><path class="d" d="m288.2 410.3q-9.4-14.7-8.2-32.3 2.6-2.3 6.1-2.8c6.3-0.8 13.2 0.6 18 5.2 7.5 7.2 6.6 19.2-1.1 25.9q-6 5.2-14.8 4z"/><path class="b" d="m742.5 293.3q-23.2 12.6-42.8 22.6-8.2 4.2-18.6 10.8-25.4 16-45 30.6-26.2 19.6-27.4 20.4-4.2 3.1-9.8 6-0.4 0.3-0.9 0.4-0.4 0.1-0.9 0.2-0.4 0-0.9 0-0.5 0-0.9-0.2c-2.8-0.7-11.2-4.3-10.1-8.5q2.9-11.6 10.2-25.2 11.5-21.4 27.5-38.8 30.6-33.1 73-46c17.5-5.4 35.7-7.2 54.1-6.5q10.9 0.4 23.8 1.9 6.2 0.8 10.4 1.9 0.3 0.1 0.5 0.2 0.2 0.2 0.3 0.4 0.2 0.2 0.2 0.4 0.1 0.2 0.1 0.5-0.2 2.4-1 7-0.7 4.4-4.2 21c-2.5 12.1-6.1 24.1-10.4 35.3-9.8 25.9-27.8 51.2-51.7 65.9-17.6 10.9-42 16.8-63.6 17.6-15.8 0.6-29.3-2-43.2-8.9q-1.4-0.7-2.4-1.4-0.1-0.2-0.2-0.4-0.1-0.2-0.1-0.4 0.1-0.3 0.2-0.5 0.1-0.1 0.3-0.2 5-2.6 13.9-8.1c27.5-17 53.5-38.4 79.3-61.5q27.1-24.1 28.7-25.7 1.6-1.6 11.7-10.6 0-0.1 0-0.1 0.1-0.1 0-0.1 0 0 0-0.1-0.1 0-0.1 0.1z"/><path class="c" d="m548.3 379.7q0-0.1 0.1-0.2 0 0 0.1-0.1 0.1 0 0.2 0 0.1 0 0.1 0.1 12.9 9.5 19.2 14.1c1.5 1.1 1.8 2.2 1.6 4.1q-3.4 27.7-15.3 49.3-8.3 14.9-22.4 30.9c-26.6 29.8-64 48.7-104.1 50.1q-18.6 0.7-36.5-2.6-0.4-0.1-0.7-0.3-0.3-0.1-0.6-0.4-0.3-0.2-0.5-0.5-0.2-0.4-0.3-0.7c-4.1-12.9-7.3-28.5-6.2-42.2q0 0 0-0.1 0.1-0.1 0.1-0.1 0.1-0.1 0.2-0.1 0 0 0.1 0c28.1 2.5 56.9-0.7 83.1-11.3q43.9-17.7 68.5-58.2 9.2-15 13.3-31.8z"/><path class="c" d="m423.6 573c17.3 3.6 34.7 1.3 52.3-3.3 50.7-13.4 93.3-47.1 117.4-93.3q12.3-23.5 14.9-50.3 0-0.1 0.1-0.2 0-0.1 0.1-0.2 0.1 0 0.2 0 0.1 0 0.2 0 12 5.2 26.3 6.8 4.7 0.5 5.5 5.9c1.7 10.3 1.1 24-1.3 34.4q-6.7 30.2-23 53.1-34.2 47.8-88.7 70.9c-14.8 6.3-30 11.4-45.6 12.9q-3.3 0.3-6.3-0.3-0.1-0.1-0.2-0.1-0.1 0-0.2-0.1-0.1 0-0.2 0-0.1-0.1-0.2-0.2c-18.6-9.2-36.6-21-51.5-35.6q-0.1 0-0.1-0.1 0-0.1 0-0.2 0-0.1 0.1-0.1 0.1-0.1 0.2 0z"/><path class="c" d="m672.2 505.9q0.1-0.1 0.1-0.1 0.1-0.1 0.2-0.1 0.1 0 0.2 0.1 0.1 0.1 0.1 0.2 2.4 10.7 2 21.2-1.2 29.4-14.1 54.9-2.3 4.6-8 11.6c-15.5 18.7-41.9 29.1-65.7 32.5q-12.2 1.7-23.6 2-0.1 0-0.1 0-0.1-0.1-0.1-0.2 0-0.1 0-0.1 0-0.1 0.1-0.2 18.2-7.5 34.6-19.6 35.4-26.1 57.8-62.9 9.8-16.1 14.4-32.3 1.1-3.9 2.1-7z"/><path class="e" d="m77.8 739q3.2 0.9 10 0.8 7.7-0.1 16-0.1 0.4 0 0.8 0.2 0.4 0.1 0.8 0.3 0.4 0.3 0.6 0.6 0.3 0.4 0.5 0.7 13.1 32.1 24.6 61.9 1.4 3.8 2.8 8.2 0.6 2 2.7 1.5 0.1 0 0.2 0 0.1-0.1 0.2-0.2 0.1 0 0.1-0.1 0.1-0.1 0.2-0.2l27.7-71q0.1-0.5 0.4-0.8 0.3-0.4 0.7-0.6 0.4-0.3 0.8-0.4 0.4-0.1 0.9-0.2h25.8q0.3 0.1 0.5 0.1 0.3 0.1 0.6 0.2 0.2 0.2 0.4 0.4 0.2 0.1 0.4 0.4c2.5 3.8 0.1 5.8-3.1 7.4-5.4 2.7-5.3 4.4-5 10.4q1.2 23.9 4.1 73.5 0.3 3.8 3.3 5.7 2.3 1.4 4.3 2.2c3.5 1.2 6.1 3.1 4.2 6.9q0 0.1-0.1 0.2-0.1 0.1-0.2 0.2-0.1 0.1-0.2 0.2-0.1 0.1-0.2 0.1-1.8 1.3-3.6 1.3-22 0.1-36.7 0-0.3 0-0.6-0.1-0.3 0-0.6-0.2-0.3-0.2-0.5-0.4-0.2-0.2-0.3-0.5-1.2-2.7 0.6-4.8 0.1-0.1 0.2-0.2 0.1-0.1 0.2-0.1 0-0.1 0.1-0.2 0.1 0 0.2-0.1l5.7-2.8q0 0 0 0 0.1 0 0.1 0 0 0 0-0.1 0.1 0 0.1 0 3.4-2.8 3.4-7.3-0.2-17-1.2-39-0.4-9.3-0.6-18.4 0-2-1.1-2.8 0-0.2-0.1-0.4-0.1-0.2-0.4-0.2-0.2 0-0.5 0.2-0.9-0.2-1.2 0.4-20.2 50.4-30.7 76.1-0.1 0.3-0.3 0.6-0.3 0.3-0.5 0.5-0.3 0.2-0.7 0.3-0.3 0.1-0.6 0.1h-4q-0.4 0-0.8-0.2-0.4-0.1-0.8-0.3-0.3-0.3-0.6-0.6-0.3-0.3-0.4-0.7-6-15.5-11.7-29.1 0-0.2-8.2-20.5-4.9-12.3-10.6-24.2-1.1-1-2.3-1.3-2 27.2-2.9 54 0 1.7 0.3 6.3 0 0.1 0 0.2 0.1 0.1 0.1 0.2 0 0.1 0.1 0.3 0 0.1 0 0.2c2.2 5.5 8.4 5.2 12.9 7.3 2.7 1.2 2.7 5.3 1.1 7.1q-0.8 0.8-4 0.8-17.4-0.1-29.7 0-2.1 0-3.4-0.3c-2.6-0.7-2.1-4.3-1.3-6.1q0.6-1.3 3-2.8 0.5-0.3 4.5-3.7 3.7-3.1 4.1-7.5 3.1-35.7 6-72 0.2-3-1.6-5.2-0.1-0.1-0.1-0.1-0.1-0.1-0.2-0.2-0.1 0-0.1-0.1-0.1-0.1-0.2-0.1l-7.3-4.9q-1-1.2-0.9-3.6 0.1-4 3.8-3.3z"/><path fill-rule="evenodd" class="e" d="m574.8 745.2q-1-1.7-0.2-2.2 1.7-3 3.7-3 24.8-0.5 47.5-0.1 2.6 0 5.4 0.4 3 0.5 5.4 0.6 25.8 1.5 40.6 22.4 5.4 7.5 6.9 19 1.9 14-1.1 28.5c-2.8 14.3-12.5 25.5-25.9 32q-12.3 5.9-27.1 6-40.4 0.2-51-0.1-4.3-0.1-4.4-4.7c0-0.1 0-0.2 0-0.3 0 0 0.1-0.2 0.1-0.2 0 0 0.1-0.2 0.1-0.2 0-0.1 0.1-0.2 0.1-0.2q1.8-2.3 3.2-2.6c4.1-0.8 9-2 9.4-6.6q0.3-2.9 0.3-6.4-0.2-27.9-0.1-70.5c0-4-0.8-7.1-4.8-8.1q-4.8-1.2-8.1-3.7zm34.5 7.5q-0.4 2.1-0.3 8.8 0 41-0.2 63-0.1 12.2 9.8 14.5 2.5 0.6 7.7 0.7 6.4 0 7.7-0.2c9.7-1.2 18.9-6.2 23.4-15.1q2.9-5.6 4-10.8c3.3-14.5 2.2-33.4-6.4-45.6q-7.1-10.1-19.1-14.4-7.1-2.6-12-2.6-10.7-0.2-12.7-0.1c-0.1 0-0.5 0.1-0.6 0.2-0.1 0-0.4 0.2-0.5 0.2-0.1 0.1-0.4 0.3-0.4 0.4-0.1 0.1-0.3 0.4-0.3 0.5q0 0.1-0.1 0.5z"/><path fill-rule="evenodd" class="e" d="m696 844.6q-0.2-2.7 2.7-3.7 4-1.3 6.4-2.6c2.8-1.5 3.1-5.8 3.1-9.1q0-0.7 0-74.2 0-1.2-0.9-3.6c0 0-0.1-0.2-0.1-0.2-0.1 0-0.2-0.2-0.2-0.2 0-0.1-0.1-0.2-0.2-0.2 0 0-0.1-0.1-0.2-0.2q-2.8-1.7-5.4-2.3c-3-0.7-6.1-2.6-5.7-6.3 0-0.1 0.2-0.7 0.2-0.8 0.1-0.1 0.5-0.6 0.6-0.7 0.2-0.1 0.7-0.4 0.9-0.5 0.1 0 0.8-0.1 1-0.1 10.8 0.1 20.1-0.4 31-0.2 17 0.4 36.7-2.1 49 12.1q5.4 6.1 5.4 15.5 0.1 16.1-14.6 22-1.7 0.7-1.7 2.5c0 0 0.1 0.2 0.1 0.2 0 0.1 0.1 0.2 0.1 0.2 0 0.1 0.1 0.2 0.2 0.2 0 0 0.1 0.1 0.2 0.1 13.3 2.7 21.3 11.2 21.4 25q0.1 22.7-21.4 28.4-10.6 2.9-22.6 2.9-36.7 0-42.3 0.2c-3.2 0.1-6.8-0.5-7-4.4zm32.2-58.4c0.1 0.1 0.4 0.6 0.6 0.7 0.1 0.1 0.6 0.4 0.7 0.5 0.2 0.1 0.8 0.2 0.9 0.2q10.6 0 11.9 0c10.7 0.2 18.3-2.1 20.5-13.4q1.7-8.5-2.7-15.3c-6.4-9.8-19.5-9.2-29.6-8.7q-2.7 0.2-2.8 2.3-0.4 18.5 0.3 32.8c0 0.2 0.2 0.7 0.2 0.9zm0.7 37.8c0.1 8.3-0.1 14.1 9 14.8 10.9 0.9 23.8-0.3 28-12.7 4.3-13-0.9-24.8-15.2-26.7q-10.3-1.5-21-0.8-0.1 0-0.3 0.1-0.1 0.1-0.2 0.2-0.2 0.1-0.2 0.3-0.1 0.1-0.1 0.3-0.1 4.8 0 24.5z"/><path fill-rule="evenodd" class="e" d="m523.5 851.3c-18.8-1-33.8-12.1-37.7-30.5q-2.1-10.1 0.1-20.3c4.6-20.9 21.2-32.1 42-31 20.7 1.1 36 14 38.3 35.3q1.2 10.4-2 20.2c-5.8 17.9-21.9 27.4-40.7 26.3zm-17-53.4c-2.7 14-1.5 44.8 20.1 44.1 21.6-0.6 21.1-31.3 17.6-45.2-2.4-9.4-8.5-18.5-19.4-18.2-10.8 0.3-16.4 9.8-18.3 19.3z"/><path fill-rule="evenodd" class="e" d="m212.8 829.1q-1.8-4.3-2.4-9.1c-1.5-11.7 0-23.8 6.5-33.8 7-10.7 20.1-16.6 32.5-16.8q13.5-0.2 24.1 7 14.9 10.2 15.9 31.4c0.5 11.2-2.4 23.5-10.5 31.6q-7.8 7.7-17.2 10.2-12.3 3.2-24.8 0.2-17.3-4.3-24.1-20.7zm18.1-31.5q-2.7 14.8 1.7 28.9c2.2 7.1 7 13.7 14.9 15.1q1 0.2 4 0 3-0.1 3.9-0.4c7.7-2.3 11.7-9.4 13.1-16.7q2.7-14.5-1.6-29c-2.7-8.9-9.3-16.7-19-16.1-9.6 0.5-15.3 9-17 18.2z"/><path fill-rule="evenodd" class="e" d="m413.3 823.7q0.8-0.4 1-1 0.3-0.6-0.5-1.5 0.2-0.7-1-1.3c-7-3.3-13.2-9.8-13.8-18q-1.6-21 17.7-29.4 4.5-1.9 11.6-2.7c8.4-0.9 17.5 0.4 26.1 3.3q9.6 3.2 20.1-0.4c5.3-1.8 4.6 5.3 3.7 8-1.5 5-8 4.1-12 3.7-0.1 0-0.6 0.1-0.7 0.1-0.1 0.1-0.5 0.4-0.6 0.5 0 0.1-0.2 0.5-0.2 0.6-0.1 0.1 0 0.6 0 0.7 1.7 4.7 3 8.9 2 14.1-2.3 11.9-11.7 19.8-23.1 22.2q-6.9 1.5-14.4 1.3c-5.6-0.1-10-0.3-10.1 6.2-0.1 3.4 2.5 5.7 5.5 6.3q0.3 0.1 4.1 0.4 2 0.2 4.1 0.2 17.4 0.1 20.9 0.2 6.5 0.3 12.5 3.6c5.2 3 8.1 6.7 8.8 12.8q1.4 12.6-7.8 20.7-14.4 12.7-34 13.8c-9 0.5-18.1-0.4-26.3-4.5q-4.9-2.4-7.5-6.2c-3.7-5.3-4.6-13.8 0.5-18.4q3.8-3.5 8.8-5.6 2.3-1 1.6-3.6c0 0 0-0.2-0.1-0.2 0 0-0.1-0.2-0.1-0.2 0-0.1-0.1-0.2-0.1-0.3-0.1 0-0.2-0.1-0.2-0.1-2.5-2.1-5.8-5.1-6.5-9.5q-1.3-9 6.5-13 2.6-1.3 3.6-2c0 0 0.1-0.1 0.1-0.1 0 0 0.1-0.1 0.1-0.1 0-0.1 0-0.1 0-0.2 0 0 0-0.1 0-0.1q0-0.3-0.3-0.3zm5.4-34c-2.8 10.9 0.2 25.8 14.5 26 14.3 0.2 17.7-14.7 15-25.7-1.7-7.2-6.9-12.2-14.6-12.2-7.6-0.1-13 4.7-14.9 11.9zm28.5 65.2q-15.7-0.3-21.7-0.5-4.4-0.1-6.6 0.8c-7 2.8-7.8 12.2-2.4 16.9 8.2 7.1 22.5 6 31.9 2.3 5.2-2 11.1-6.2 10.2-12.5-0.7-5.4-6.7-6.9-11.4-7z"/><path fill-rule="evenodd" class="e" d="m824.9 808c-1.8 3 0.1 12.1 1.1 14.7q4.5 12.5 17.3 15.4c10.4 2.3 18.9-0.1 27.7-5.4 0.2-0.1 0.8-0.3 0.9-0.3 0.2 0 0.8 0.1 0.9 0.2 0.2 0 0.7 0.3 0.8 0.5 0.1 0.1 0.4 0.6 0.4 0.7q1.1 3.3-1.5 5.5-8.8 7.1-15.8 9.6c-5.2 1.9-11.9 2.4-18 2.1q-9.2-0.4-16.2-3.8c-12.5-6.2-18-17.3-18.4-31.2-0.4-15 3-28.8 15.4-38.6q16.5-12.9 36.6-5c5.9 2.3 14.3 8.3 16 14.8q2.4 9.2 0.7 17.6-0.4 2-3.1 2-9.6 0.1-42.9 0.1c-0.1 0-0.5 0-0.6 0.1-0.1 0-0.4 0.1-0.5 0.2-0.1 0-0.4 0.3-0.5 0.3-0.1 0.1-0.3 0.4-0.3 0.5zm0.3-11.8q0 0.2 0.1 0.3 0.1 0.1 0.2 0.2 0.1 0.1 0.2 0.2 0.2 0.1 0.3 0.1l27.8-0.1q0.6-1.1 0.3-2.8c-1.7-20.5-29.8-18.3-28.9 2.1z"/><path fill-rule="evenodd" class="e" d="m908.4 808c-1.8 2.9 0.2 12.1 1.1 14.7q4.6 12.5 17.4 15.4c10.4 2.3 18.8-0.1 27.7-5.4 0.2-0.1 0.7-0.3 0.9-0.3 0.1 0 0.8 0.1 0.9 0.2 0.1 0 0.7 0.3 0.8 0.5 0.1 0.1 0.4 0.6 0.4 0.7q1.1 3.4-1.5 5.5-8.9 7.1-15.9 9.6c-5.2 1.9-11.8 2.4-18 2.1q-9.2-0.4-16.2-3.8c-12.5-6.2-18-17.3-18.4-31.3-0.4-15 3-28.8 15.4-38.6q16.5-13 36.7-5c5.9 2.3 14.3 8.4 16 14.8q2.4 9.2 0.7 17.7-0.4 1.9-3.1 2-9.7 0.1-43 0c-0.1 0-0.5 0.1-0.6 0.1 0 0-0.4 0.2-0.5 0.2-0.1 0.1-0.4 0.3-0.5 0.4 0 0.1-0.3 0.4-0.3 0.5zm28.6-10.4c0.1 0 0.6 0 0.7-0.1 0.1 0 0.5-0.3 0.6-0.4 0-0.1 0.3-0.5 0.3-0.6 0.1-0.1 0.2-0.5 0.2-0.6v-0.9c-0.1-1.1-0.9-5.3-1.3-6.3-0.4-0.9-2.6-4.5-3.4-5.2-0.7-0.8-4-3.1-4.9-3.5-0.9-0.4-4.8-1.2-5.8-1.2h-0.6c-1 0.1-4.8 1-5.7 1.4-0.9 0.4-4.2 2.8-4.9 3.6-0.7 0.8-2.8 4.4-3.2 5.4-0.3 1-1 5.2-1 6.3v0.8c0 0.2 0.1 0.6 0.1 0.7 0.1 0.1 0.3 0.5 0.4 0.6 0.1 0.1 0.5 0.3 0.6 0.4 0.1 0 0.6 0.1 0.7 0.1z"/><path class="e" d="m328.3 789.9q-0.3 0.2-0.5 0.5-0.2 0.3-0.3 0.6-0.1 0.3-0.2 0.7-0.1 0.3-0.1 0.7-0.2 15.8-0.1 36.9c0.1 3.9 0.4 7.2 3.9 9.7q1.9 1.3 5.7 3.4 1.1 0.6 1.5 2.1c1.1 3.9-2.5 4.4-5.6 4.4q-27.2-0.1-31.9 0-1.7 0-3-1.1-0.1 0-0.2-0.1-0.1-0.1-0.1-0.2-0.1-0.1-0.2-0.2 0-0.1-0.1-0.2-1.2-3.6 2.5-5.1c4.1-1.5 7.4-2.3 8.9-6.5q0-0.1 0-0.2 0.1-0.2 0.1-0.3 0-0.1 0-0.2 0-0.1 0-0.2 0.6-30.2 0-45.7c-0.2-5.3-3.7-7.3-8.5-7.6-3-0.1-6.5-1.5-5.3-5.2q0.2-0.5 0.4-0.9 0.3-0.4 0.7-0.7 0.4-0.4 0.9-0.6 0.4-0.1 0.9-0.2 12.7-1.4 26.3-3 2-0.2 3.1 2.1 0 0 0 0.1 0 0 0 0.1 0 0 0.1 0.1 0 0 0 0.1v4.6q0 0.5 0.2 0.8 0.2 0.4 0.6 0.6 0.3 0.2 0.8 0.2 0.4 0 0.7-0.3c2.6-1.6 5.7-4.2 8.5-5.6q11.5-5.2 23.3-2.6 11.9 2.7 15.6 14.9c0.8 2.6 1.4 8.1 1.4 12q0.1 21.3 0 31.5c-0.1 5.3 0.9 9.4 5.9 11.5 2.7 1.1 5.7 2.1 5.4 5.1-0.1 2.5-2 3-4.3 3q-8.2-0.1-32.4 0c-3.1 0-3.5-3.2-2.2-5.5q0.1-0.1 0.1-0.2 0.1-0.1 0.2-0.2 0-0.1 0.1-0.1 0.1-0.1 0.2-0.2c3.8-2.4 6.9-3.8 8.1-6.9q0-0.1 0.1-0.2 0-0.1 0-0.2 0.1-0.1 0.1-0.2 0-0.1 0-0.2 0.3-1.3 0.4-4.9 0.2-3.1 0.1-26.4 0-5.7-0.8-9.1c-3.9-16.2-21.9-13.5-31-4.7z"/></svg>